<?xml version="1.0" encoding="UTF-8" standalone="no"?>
<!-- Created with Inkscape (http://www.inkscape.org/) -->

<svg
   viewBox="0 0 259.48682 82.099556"
   version="1.1"
   id="svg1"
   xmlns="http://www.w3.org/2000/svg"
   xmlns:svg="http://www.w3.org/2000/svg">
  <defs
     id="defs1" />
  <g
     id="layer1"
     transform="translate(23.276224,-56.737312)">
    <g
       id="text1"
       style="font-weight:bold;font-size:15.8549px;font-family:'VictorMono Nerd Font';-inkscape-font-specification:'VictorMono Nerd Font, Bold';stroke-width:0.485245;stroke-linecap:round;paint-order:markers stroke fill"
       aria-label="about">
      <path class="fill-foreground dark:fill-primary" 
         style="stroke-width:0.485243"
         d="M 71.89633,59.360578 H 54.513594 V 57.832742 H 71.89633 Z m 155.66615,0 h -17.38273 v -1.527836 h 17.38273 z"
         id="path5" />
      <path class="fill-foreground dark:fill-primary" 
         style="stroke-width:0.485243"
         d="m 2.7113819,79.179203 h -8.7346087 v -1.527836 h 8.7346087 z m 8.6481191,0 H 2.6248921 v -1.527836 h 8.7346089 z m 8.648119,0 h -8.734609 v -1.527836 h 8.734609 z m 8.648117,0 h -8.734609 v -1.527836 h 8.734609 z m 17.296242,0 H 37.21737 v -1.527836 h 8.734609 z m 2.017886,0 h -1.729626 l 6.255479,-16.287307 h 1.729626 z m 17.296234,0 h -1.729626 l 6.255479,-16.287307 h 1.729626 z m 15.278356,0 h -8.734609 v -1.527836 h 8.734609 z m 25.944355,0 h -8.734605 v -1.527836 h 8.734605 z m 8.64812,0 h -8.73461 v -1.527836 h 8.73461 z m 8.64812,0 h -8.73461 v -1.527836 h 8.73461 z m 8.64811,0 h -8.7346 v -1.527836 h 8.7346 z m 34.59249,0 h -17.38274 v -1.527836 h 17.38274 z m 34.59247,0 h -17.38274 v -1.527836 h 17.38274 z m 2.01788,0 h -1.72962 l 6.25548,-16.287307 h 1.72962 z m 17.29625,0 h -1.72962 l 6.25548,-16.287307 h 1.72962 z m 15.27835,0 h -8.73461 v -1.527836 h 8.73461 z"
         id="path6" />
      <path class="fill-foreground dark:fill-primary" 
         style="stroke-width:0.485243"
         d="m -12.566968,98.997829 h -1.729626 l 6.2554793,-16.287307 h 1.7296255 z m 32.574588,0 H 2.6248836 V 97.469993 H 20.00762 Z m 15.177447,-12.323582 -1.138671,1.196324 -3.329529,-3.041258 1.138671,-1.196324 z m 4.136681,12.323582 h -1.729626 l 6.255479,-16.287307 h 1.729625 z m 32.574582,0 H 54.513594 V 97.469993 H 71.89633 Z m 17.252991,-1.98907 5.491561,-14.298237 h 1.729625 L 90.115028,98.997829 H 88.183613 L 81.928134,82.710522 h 1.729626 z m 34.635729,1.98907 h -17.38274 v -1.527836 h 17.38274 z m 17.25298,-1.98907 5.49156,-14.298237 h 1.72963 l -6.25548,16.287307 h -1.93142 l -6.25548,-16.287307 h 1.72963 z m 19.35739,1.98907 h -1.72963 l 6.25548,-16.287307 h 1.72963 z m 17.29623,0 h -1.72962 l 6.25547,-16.287307 h 1.72963 z m 17.29624,0 h -1.72963 l 6.25548,-16.287307 h 1.72962 z m 32.57459,0 h -17.38273 v -1.527836 h 17.38273 z m 2.01789,0 h -1.72963 l 6.25548,-16.287307 h 1.72963 z"
         id="path7" />
      <path class="fill-foreground dark:fill-primary" 
         style="stroke-width:0.485243"
         d="m -21.215087,118.81645 h -1.729626 l 6.255479,-16.2873 h 1.729626 z m 17.2962379,0 h -1.7296255 l 6.25547883,-16.2873 H 2.3366297 Z m 15.2783501,0 H 2.6248921 v -1.52783 h 8.7346089 z m 2.017888,0 h -1.729626 l 6.255479,-16.2873 h 1.729626 z m 17.296238,0 h -1.729626 l 6.255479,-16.2873 h 1.729626 z m 17.296238,0 h -1.729626 l 6.255479,-16.2873 h 1.729626 z m 15.278348,0 h -8.734609 v -1.52783 h 8.734609 z m 2.017886,0 h -1.729626 l 6.255479,-16.2873 h 1.729626 z m 17.296242,0 h -1.729626 l 6.255479,-16.2873 h 1.729625 z m 17.296241,0 h -1.729625 l 6.255483,-16.2873 h 1.72962 z m 15.278348,0 h -8.73461 v -1.52783 h 8.73461 z m 2.01789,0 h -1.72963 l 6.25548,-16.2873 h 1.72963 z m 17.29623,0 h -1.72962 l 6.25547,-16.2873 h 1.72963 z m 17.29623,0 h -1.72962 l 6.25548,-16.2873 h 1.72962 z m 15.27837,0 h -8.73461 v -1.52783 h 8.73461 z m 2.01788,0 h -1.72962 l 6.25548,-16.2873 h 1.72962 z m 17.29624,0 h -1.72963 l 6.25548,-16.2873 h 1.72963 z m 17.29623,0 h -1.72962 l 6.25548,-16.2873 h 1.72962 z m 15.27835,0 h -8.73461 v -1.52783 h 8.73461 z"
         id="path8" />
      <path class="fill-foreground dark:fill-primary" 
         style="stroke-width:0.485243"
         d="m -14.959608,138.63508 h -1.729626 l -6.255479,-16.28731 h 1.729626 z m 17.6709899,0 H -14.671354 v -1.52784 H 2.7113819 Z m 2.6232569,0.20179 q 0.7350908,-1.00895 1.0089482,-1.57108 0.2882709,-0.56213 0.2882709,-1.03777 -0.5477148,0 -0.7495044,-0.25945 -0.2017896,-0.25944 -0.2017896,-0.9657 0,-0.69185 0.2738573,-0.9513 0.2882709,-0.27386 1.0377753,-0.27386 0.7495044,0 1.0233618,0.27386 0.2882709,0.25945 0.2882709,0.9513 0,1.0666 -0.3747522,1.88817 -0.3603387,0.83599 -1.3260462,1.94583 z M 20.00762,138.63508 h -8.734609 v -1.52784 h 8.734609 z m 2.017886,0 H 20.29588 l 6.255479,-16.28731 h 1.729626 z m 15.278352,0 h -8.734609 v -1.52784 h 8.734609 z m 4.280816,-2.42148 q -0.749504,0 -1.037775,-0.25944 -0.273857,-0.27386 -0.273857,-0.95129 0,-0.69185 0.273857,-0.9513 0.288271,-0.27386 1.037775,-0.27386 0.749505,0 1.023362,0.27386 0.288271,0.25945 0.288271,0.9513 0,0.67743 -0.288271,0.95129 -0.273857,0.25944 -1.023362,0.25944 z m 13.015422,2.42148 h -8.734609 v -1.52784 h 8.734609 z m 8.648117,0 h -8.734609 v -1.52784 h 8.734609 z m 8.648117,0 h -8.734609 v -1.52784 h 8.734609 z m 9.570581,-16.28731 6.255479,16.28731 h -1.729626 l -5.49156,-14.29824 -5.491561,14.29824 h -1.729626 l 6.255479,-16.28731 z m 16.373778,16.28731 H 89.10608 v -1.52784 h 8.734609 z m 8.648121,0 h -8.734605 v -1.52784 h 8.734605 z m 8.64812,0 h -8.73461 v -1.52784 h 8.73461 z m 8.64812,0 h -8.73461 v -1.52784 h 8.73461 z m 9.57057,-16.28731 6.25548,16.28731 h -1.72963 l -5.49156,-14.29824 -5.49156,14.29824 h -1.72962 l 6.25548,-16.28731 z m 25.0219,16.28731 h -17.38274 v -1.52784 h 17.38274 z m 2.62327,0.20179 q 0.73509,-1.00895 1.00894,-1.57108 0.28828,-0.56213 0.28828,-1.03777 -0.54772,0 -0.74951,-0.25945 -0.20179,-0.25944 -0.20179,-0.9657 0,-0.69185 0.27386,-0.9513 0.28827,-0.27386 1.03777,-0.27386 0.74951,0 1.02337,0.27386 0.28827,0.25945 0.28827,0.9513 0,1.0666 -0.37476,1.88817 -0.36033,0.83599 -1.32604,1.94583 z m 14.67298,-0.20179 h -8.73461 v -1.52784 h 8.73461 z m 9.57057,-16.28731 6.25548,16.28731 h -1.72963 l -5.49156,-14.29824 -5.49156,14.29824 h -1.72963 l 6.25548,-16.28731 z m 25.02189,16.28731 H 192.8835 v -1.52784 h 17.38273 z m 2.01789,0 h -1.72963 l 6.25548,-16.28731 h 1.72963 z"
         id="path9" />
    </g>
  </g>
</svg>
