<?xml version="1.0" encoding="UTF-8" standalone="no"?>
<!-- Created with Inkscape (http://www.inkscape.org/) -->

<svg
   width="317.85999mm"
   height="136.61923mm"
   viewBox="0 0 317.85999 136.61923"
   version="1.1"
   id="svg1"
   xmlns="http://www.w3.org/2000/svg"
   xmlns:svg="http://www.w3.org/2000/svg">
  <defs
     id="defs1" />
  <g
     id="layer1"
     transform="translate(49.525515,-59.406932)">
    <g
       id="text1"
       style="font-weight:bold;font-size:26.8072px;font-family:'VictorMono Nerd Font';-inkscape-font-specification:'VictorMono Nerd Font, Bold';fill:#000000;stroke-width:0.820447;stroke-linecap:round;paint-order:markers stroke fill"
       aria-label="CMLI">
      <path class="fill-foreground dark:fill-primary" 
         style="stroke-width:0.820442;fill:#000000"
         d="m 227.80691,61.990171 h -14.76833 v -2.583239 h 14.76833 z m 14.62207,0 h -14.76833 v -2.583239 h 14.76833 z m 14.6221,0 h -14.76833 v -2.583239 h 14.76833 z"
         id="path5" />
      <path class="fill-foreground dark:fill-primary" 
         style="stroke-width:0.820442;fill:#000000"
         d="M -6.1466195,95.49917 H -20.914949 v -2.583239 h 14.7683295 z m 14.622097,0 H -6.2928524 V 92.915931 H 8.4754775 Z m 14.6220935,0 H 8.3292408 V 92.915931 H 23.097571 Z m 14.622093,0 h -14.76833 v -2.583239 h 14.76833 z m 14.622101,0 h -14.76833 v -2.583239 h 14.76833 z m 14.622093,0 h -14.76833 v -2.583239 h 14.76833 z m 14.622093,0 h -14.76833 v -2.583239 h 14.76833 z m 14.622101,0 h -14.76833 v -2.583239 h 14.76833 z m 14.622088,0 H 96.061808 v -2.583239 h 14.768332 z m 29.2442,0 h -14.76833 v -2.583239 h 14.76833 z m 14.62208,0 h -14.76833 v -2.583239 h 14.76833 z m 14.62211,0 H 154.5502 v -2.583239 h 14.76833 z m 32.656,0 h -2.92442 l 10.57666,-27.538304 h 2.92442 z m 37.28633,-0.901696 q -2.43702,0 -4.31352,-1.657173 -1.87651,-1.657172 -2.90005,-4.654704 -1.02355,-3.021903 -1.02355,-6.969872 0,-3.947969 1.02355,-6.945502 1.02354,-3.021902 2.90005,-4.679075 1.8765,-1.657172 4.31352,-1.657172 v 2.583239 q -1.60843,0 -2.85131,1.34036 -1.21851,1.31599 -1.90087,3.753008 -0.68237,2.412648 -0.68237,5.605142 0,3.192494 0.68237,5.629512 0.68236,2.412648 1.90087,3.753008 1.24288,1.31599 2.85131,1.31599 z m 17.79022,0.901696 h -14.76833 v -2.583239 h 14.76833 z m 3.04627,-3.484935 q 1.60843,0 2.82694,-1.31599 1.24288,-1.34036 1.92524,-3.753008 0.68237,-2.437018 0.68237,-5.629512 0,-3.192494 -0.68237,-5.605142 -0.68236,-2.437018 -1.92524,-3.753008 -1.21851,-1.34036 -2.82694,-1.34036 v -2.583239 q 2.43702,0 4.31352,1.657172 1.87651,1.657173 2.90005,4.679075 1.02355,2.997533 1.02355,6.945502 0,3.947969 -1.02355,6.969872 -1.02354,2.997532 -2.90005,4.654704 -1.8765,1.657173 -4.31352,1.657173 z"
         id="path6" />
      <path class="fill-foreground dark:fill-primary" 
         style="stroke-width:0.820442;fill:#000000"
         d="m -31.978998,129.00817 h -2.924422 l 10.576659,-27.53831 h 2.924422 z m 40.4544755,0 H -6.2928524 v -2.58324 H 8.4754775 Z m 14.6220935,0 H 8.3292408 v -2.58324 H 23.097571 Z m 14.622093,0 h -14.76833 v -2.58324 h 14.76833 z m 3.411817,0 H 38.20706 l 10.576658,-27.53831 h 2.924422 z m 55.076571,0 H 66.817613 v -2.58324 h 29.390439 z m 25.661768,-20.83651 -1.92524,2.02273 -5.62951,-5.14211 1.92524,-2.02272 z m 32.8266,20.83651 h -29.39043 v -2.58324 h 29.39043 z m 29.17107,-3.36309 9.28504,-24.17522 h 2.92442 l -10.57666,27.53831 h -3.2656 l -10.57666,-27.53831 h 2.92442 z m 32.72914,3.36309 h -2.92442 l 10.57666,-27.53831 h 2.92442 z m 29.24417,0 h -2.92442 l 10.57666,-27.53831 h 2.92442 z"
         id="path7" />
      <path class="fill-foreground dark:fill-primary" 
         style="stroke-width:0.820442;fill:#000000"
         d="m -46.601093,162.51717 h -2.924422 l 10.576659,-27.53831 h 2.924422 z m 29.24419,0 h -2.924422 l 10.576659,-27.53831 h 2.9244218 z m 40.454474,0 H -6.292868 v -2.58324 h 29.390439 z m 3.41181,0 h -2.924422 l 10.576658,-27.53831 h 2.924422 z m 29.244194,0 h -2.924422 l 10.576658,-27.53831 h 2.924422 z m 29.244194,0 h -2.924422 l 10.576659,-27.53831 h 2.924421 z m 29.244181,0 h -2.92442 l 10.57666,-27.53831 h 2.92442 z m 29.24419,0 h -2.92442 l 10.57666,-27.53831 h 2.92442 z m 29.24419,0 h -2.92442 l 10.57665,-27.53831 h 2.92443 z m 29.2442,0 h -2.92442 l 10.57666,-27.53831 h 2.92442 z m 29.24417,0 h -2.92442 l 10.57666,-27.53831 h 2.92442 z"
         id="path8" />
      <path class="fill-foreground dark:fill-primary" 
         style="stroke-width:0.820442;fill:#000000"
         d="m -36.024434,196.02617 h -2.924422 l -10.576659,-27.53831 h 2.924422 z m 15.255719,0 h -14.768329 v -2.58324 h 14.768329 z m 14.6220955,0 H -20.914949 v -2.58324 h 14.7683295 z m 14.622097,0 H -6.2928524 v -2.58324 H 8.4754775 Z m 3.4118095,0 H 8.9628656 L 19.539524,168.48786 h 2.924422 z m 25.832377,0 h -14.76833 v -2.58324 h 14.76833 z m 3.411817,0 H 38.20706 l 10.576658,-27.53831 h 2.924422 z m 29.244187,0 h -2.924422 l 10.576659,-27.53831 h 2.924421 z m 25.832384,0 h -14.76833 v -2.58324 h 14.76833 z m 3.411802,0 h -2.924422 l 10.576658,-27.53831 h 2.92442 z m 29.244206,0 h -2.92443 l 10.57666,-27.53831 h 2.92442 z m 25.83236,0 h -14.76833 v -2.58324 h 14.76833 z m 3.41182,0 h -2.92442 l 10.57666,-27.53831 h 2.92442 z m 25.83237,0 h -14.76833 v -2.58324 h 14.76833 z m 3.41182,0 h -2.92442 l 10.57666,-27.53831 h 2.92442 z m 25.83238,0 h -14.76833 v -2.58324 h 14.76833 z m 3.41182,0 h -2.92442 l 10.57666,-27.53831 h 2.92442 z"
         id="path9" />
    </g>
  </g>
</svg>
