<?xml version="1.0" encoding="UTF-8" standalone="no"?>
<!-- Created with Inkscape (http://www.inkscape.org/) -->

<svg
   width="1200"
   height="628"
   viewBox="0 0 317.49999 166.15833"
   version="1.1"
   id="svg1"
   xml:space="preserve"
   xmlns="http://www.w3.org/2000/svg"
   xmlns:svg="http://www.w3.org/2000/svg"><defs
     id="defs1" /><g
     id="layer1"><rect
       style="fill:#edeff3;fill-opacity:1;stroke-width:4.84701;stroke-linecap:round;paint-order:markers stroke fill"
       id="rect1"
       width="331.90677"
       height="183.30508"
       x="-8.0084753"
       y="-11.567797" /><g
       id="text1"
       style="font-weight:bold;font-size:26.8072px;font-family:'VictorMono Nerd Font';-inkscape-font-specification:'VictorMono Nerd Font, Bold';fill:#43455d;fill-opacity:1;stroke-width:0.820447;stroke-linecap:round;paint-order:markers stroke fill"
       aria-label="CMLI"
       transform="matrix(0.3617049,0,0,0.3617049,119.17786,28.146539)"><path
         id="path5"
         style="fill:#43455d;fill-opacity:1;stroke-width:0.820442"
         d="m 213.03883,59.406577 v 2.583073 h 14.76838 14.62122 14.62264 v -2.583073 h -14.62264 -14.62122 z m -3.41171,8.554998 -10.57659,27.538008 h 2.92453 l 10.57659,-27.538008 z m 29.6339,0.07286 c -1.62468,0 -3.06222,0.5525 -4.31322,1.657281 -1.251,1.10478 -2.21788,2.664361 -2.90024,4.678961 -0.68237,1.998353 -1.02437,4.312887 -1.02437,6.944864 0,2.631976 0.342,4.95598 1.02437,6.97058 0.68236,1.998353 1.64924,3.549893 2.90024,4.654674 1.251,1.104781 2.68854,1.657281 4.31322,1.657281 v -2.584501 c -1.07229,0 -2.02308,-0.438499 -2.85167,-1.315824 -0.81234,-0.893573 -1.44525,-2.14474 -1.90016,-3.75317 -0.45491,-1.624677 -0.68291,-3.500713 -0.68291,-5.62904 0,-2.128327 0.228,-3.996322 0.68291,-5.604753 0.45491,-1.624677 1.08782,-2.875844 1.90016,-3.753169 0.82859,-0.893573 1.77938,-1.340112 2.85167,-1.340112 z m 20.83602,0 v 2.583072 c 1.07229,0 2.01504,0.446539 2.82738,1.340112 0.82858,0.877325 1.46954,2.128492 1.92444,3.753169 0.45492,1.608431 0.68292,3.476426 0.68292,5.604753 0,2.128327 -0.228,4.004363 -0.68292,5.62904 -0.4549,1.60843 -1.09586,2.859597 -1.92444,3.75317 -0.81234,0.877325 -1.75509,1.315824 -2.82738,1.315824 v 2.584501 c 1.62468,0 3.06222,-0.5525 4.31322,-1.657281 1.251,-1.104781 2.21788,-2.656321 2.90024,-4.654674 0.68236,-2.0146 1.02437,-4.338604 1.02437,-6.97058 0,-2.631977 -0.34201,-4.946511 -1.02437,-6.944864 -0.68236,-2.0146 -1.64924,-3.574181 -2.90024,-4.678961 -1.251,-1.104781 -2.68854,-1.657281 -4.31322,-1.657281 z M -20.914935,92.916511 v 2.583072 H -6.1465622 8.4760842 23.097302 37.719948 52.341166 66.963812 81.586459 96.207676 110.83032 V 92.916511 H 96.207676 81.586459 66.963812 52.341166 37.719948 23.097302 8.4760842 -6.1465622 Z m 146.220745,0 v 2.583072 h 14.76838 14.62264 14.62122 v -2.583072 h -14.62122 -14.62264 z m 116.97689,0 v 2.583072 h 14.76837 v -2.583072 z m -266.609348,8.553569 -10.576595,27.53801 h 2.924529 l 10.576596,-27.53801 z m 73.110375,0 -10.576595,27.53801 h 2.924529 l 10.576595,-27.53801 z m 122.874523,0 10.57659,27.53801 h 3.26599 l 10.57659,-27.53801 h -2.92453 l -9.28506,24.17487 -9.28505,-24.17487 z m 52.59009,0 -10.5766,27.53801 h 2.92453 l 10.5766,-27.53801 z m 29.24529,0 -10.57659,27.53801 h 2.9231 l 10.57802,-27.53801 z m -137.25286,1.56013 -1.92587,2.0216 5.62904,5.14328 1.92587,-2.02302 z M -6.2922886,126.42502 v 2.58307 H 8.4760842 23.097302 37.719948 v -2.58307 H 23.097302 8.4760842 Z m 73.1103746,0 v 2.58307 h 29.38959 v -2.58307 z m 58.487724,0 v 2.58307 h 29.39102 v -2.58307 z m -164.255104,8.55357 -10.576595,27.538 h 2.924529 l 10.576595,-27.538 z m 29.2452927,0 -10.5780237,27.538 h 2.924529 l 10.5765952,-27.538 z m 43.8650813,0 -10.576595,27.538 h 2.92453 l 10.576595,-27.538 z m 29.245293,0 -10.576595,27.538 h 2.923101 l 10.578023,-27.538 z m 29.243864,0 -10.576595,27.538 h 2.924529 l 10.576595,-27.538 z m 29.243863,0 -10.57659,27.538 h 2.92453 l 10.57659,-27.538 z m 29.24387,0 -10.5766,27.538 h 2.92453 l 10.57659,-27.538 z m 29.24529,0 -10.57803,27.538 h 2.92453 l 10.5766,-27.538 z m 29.24386,0 -10.57659,27.538 h 2.92453 l 10.57659,-27.538 z m 29.24387,0 -10.5766,27.538 h 2.92453 l 10.5766,-27.538 z M -6.2922886,159.93352 v 2.58307 H 23.097302 v -2.58307 z m -43.2336004,8.555 10.576595,27.53801 h 2.924529 L -46.60136,168.48852 Z m 69.065752,0 -10.5765954,27.53801 h 2.9245294 l 10.576595,-27.53801 z m 29.243864,0 -10.576595,27.53801 h 2.924529 l 10.576595,-27.53801 z m 29.243864,0 -10.576595,27.53801 h 2.924529 L 80.95212,168.48852 Z m 29.243859,0 -10.57659,27.53801 h 2.924529 l 10.576591,-27.53801 z m 29.2453,0 -10.5766,27.53801 h 2.92453 l 10.5766,-27.53801 z m 29.24386,0 -10.57659,27.53801 h 2.92453 l 10.57659,-27.53801 z m 29.24387,0 -10.5766,27.53801 h 2.92453 l 10.5766,-27.53801 z m 29.24386,0 -10.5766,27.53801 h 2.92453 l 10.5766,-27.53801 z m -259.785921,24.95493 v 2.58308 h 14.768372 14.6226468 14.6226464 v -2.58308 H -6.1465622 -20.769209 Z m 58.489156,0 v 2.58308 h 14.768373 v -2.58308 z m 58.487729,0 v 2.58308 h 14.768372 v -2.58308 z m 58.489156,0 v 2.58308 h 14.76837 v -2.58308 z m 29.24386,0 v 2.58308 h 14.76838 v -2.58308 z m 29.24387,0 v 2.58308 h 14.76837 v -2.58308 z" /></g><text
       xml:space="preserve"
       style="font-weight:bold;font-size:7.77297px;font-family:'VictorMono Nerd Font';-inkscape-font-specification:'VictorMono Nerd Font, Bold';fill:#43455d;fill-opacity:1;stroke-width:0.237895;stroke-linecap:round;paint-order:markers stroke fill"
       x="80.412697"
       y="115.13914"
       id="text2"><tspan
         id="tspan1"
         style="stroke-width:0.237894"
         x="80.412697"
         y="115.13914">A database for Christian music lyrics</tspan></text></g></svg>
