<?xml version="1.0" encoding="UTF-8" standalone="no"?>
<!-- Created with Inkscape (http://www.inkscape.org/) -->

<svg
   width="446.81531mm"
   height="124.89877mm"
   viewBox="0 0 446.81531 124.89877"
   version="1.1"
   id="svg1"
   xmlns="http://www.w3.org/2000/svg"
   xmlns:svg="http://www.w3.org/2000/svg">
  <defs
     id="defs1" />
  <path class="fill-foreground dark:fill-primary" 
     style="font-weight:bold;font-size:24.1202px;font-family:'VictorMono Nerd Font';-inkscape-font-specification:'VictorMono Nerd Font, Bold';stroke-width:0.738205;stroke-linecap:round;paint-order:markers stroke fill"
     d="M 421.07251,3.990797 H 394.628 v -2.32431 h 26.44451 z"
     id="path1" />
  <path class="fill-foreground dark:fill-primary" 
     style="font-weight:bold;font-size:24.1202px;font-family:'VictorMono Nerd Font';-inkscape-font-specification:'VictorMono Nerd Font, Bold';stroke-width:0.738205;stroke-linecap:round;paint-order:markers stroke fill"
     d="M 52.691638,34.141039 H 39.4036 v -2.324307 h 13.288038 z m 13.15646,0 H 52.560061 v -2.324307 h 13.288037 z m 13.156464,0 H 65.716525 v -2.324307 h 13.288037 z m 13.156456,0 H 78.87298 v -2.324307 h 13.288038 z m 13.156452,0 H 92.029436 v -2.324307 h 13.288034 z m 13.15647,0 H 105.1859 v -2.324307 h 13.28804 z m 13.15646,0 h -13.28804 v -2.324307 h 13.28804 z m 13.15646,0 h -13.28803 v -2.324307 h 13.28803 z m 39.46938,0 H 170.9682 v -2.324307 h 13.28804 z m 13.15645,0 h -13.28804 v -2.324307 h 13.28804 z m 13.15646,0 h -13.28804 v -2.324307 h 13.28804 z m 13.15647,0 h -13.28804 v -2.324307 h 13.28804 z m 26.31292,0 h -13.28803 v -2.324307 h 13.28803 z m 13.15645,0 h -13.28804 v -2.324307 h 13.28804 z m 13.15648,0 h -13.28804 v -2.324307 h 13.28804 z m 13.15643,0 h -13.28803 v -2.324307 h 13.28803 z m 13.15647,0 h -13.28804 v -2.324307 h 13.28804 z m 13.15646,0 h -13.28804 v -2.324307 h 13.28804 z m 13.15646,0 h -13.28803 v -2.324307 h 13.28803 z m 13.15647,0 h -13.28804 v -2.324307 h 13.28804 z m 13.15646,0 h -13.28804 v -2.324307 h 13.28804 z m 13.15646,0 h -13.28803 v -2.324307 h 13.28803 z m 13.15644,0 h -13.28804 v -2.324307 h 13.28804 z m 3.06983,0 h -2.63129 L 391.55817,9.36302 h 2.6313 z m 26.31293,0 h -2.63129 L 417.8711,9.36302 h 2.6313 z m 23.24309,0 h -13.28803 v -2.324307 h 13.28803 z"
     id="path2" />
  <path class="fill-foreground dark:fill-primary" 
     style="font-weight:bold;font-size:24.1202px;font-family:'VictorMono Nerd Font';-inkscape-font-specification:'VictorMono Nerd Font, Bold';stroke-width:0.738205;stroke-linecap:round;paint-order:markers stroke fill"
     d="m 29.44855,64.291299 h -2.63129 l 9.51651,-24.77803 h 2.63129 z m 36.399548,0 H 52.560061 v -2.32431 h 13.288037 z m 13.156464,0 H 65.716525 v -2.32431 h 13.288037 z m 13.156456,0 H 78.87298 v -2.32431 h 13.288038 z m 3.069827,0 H 92.59955 l 9.51651,-24.77803 h 2.6313 z m 36.399555,0 h -13.28804 v -2.32431 h 13.28804 z m 26.24712,-3.02599 8.35436,-21.75204 h 2.6313 l -9.51652,24.77803 h -2.93828 l -9.51651,-24.77803 h 2.63129 z m 52.69163,3.02599 h -26.44451 v -2.32431 h 26.44451 z m 23.08959,-18.74798 -1.73227,1.81998 -5.06524,-4.62669 1.73227,-1.81998 z m 6.29317,18.74798 h -2.63129 l 9.51651,-24.77803 h 2.6313 z m 36.39956,0 h -13.28804 v -2.32431 h 13.28804 z m 13.15643,0 h -13.28803 v -2.32431 h 13.28803 z m 13.15647,0 h -13.28804 v -2.32431 h 13.28804 z m 3.06983,0 h -2.63129 l 9.51651,-24.77803 h 2.6313 z m 36.39956,0 h -13.28804 v -2.32431 h 13.28804 z m 13.15646,0 h -13.28804 v -2.32431 h 13.28804 z m 13.15646,0 h -13.28803 v -2.32431 h 13.28803 z m 3.06981,0 h -2.6313 l 9.51652,-24.77803 h 2.63129 z m 49.55602,0 H 394.628 v -2.32431 h 26.44451 z m 25.74281,0 h -2.63129 l -9.51652,-24.77803 h 2.6313 z"
     id="path3" />
  <path class="fill-foreground dark:fill-primary" 
     style="font-weight:bold;font-size:24.1202px;font-family:'VictorMono Nerd Font';-inkscape-font-specification:'VictorMono Nerd Font, Bold';stroke-width:0.738205;stroke-linecap:round;paint-order:markers stroke fill"
     d="m 23.52815,93.630229 q -2.19275,0 -3.88116,-1.49106 -1.68841,-1.49107 -2.60937,-4.18815 -0.92095,-2.719 -0.92095,-6.27125 0,-3.55225 0.92095,-6.24932 0.92096,-2.71901 2.60937,-4.21007 1.68841,-1.49107 3.88116,-1.49107 v 2.32431 q -1.44721,0 -2.56551,1.20601 -1.09638,1.18408 -1.71034,3.37683 -0.61397,2.17082 -0.61397,5.04331 0,2.8725 0.61397,5.06524 0.61396,2.17082 1.71034,3.37683 1.1183,1.18408 2.56551,1.18408 z m 29.163488,0.81132 H 26.24713 v -2.32431 h 26.444508 z m 29.053839,-3.13563 q 1.447212,0 2.543585,-1.18408 1.1183,-1.20601 1.732268,-3.37683 0.613969,-2.19274 0.613969,-5.06524 0,-2.87249 -0.613969,-5.04331 -0.613968,-2.19275 -1.732268,-3.37683 -1.096373,-1.20601 -2.543585,-1.20601 v -2.32431 q 2.192745,0 3.881159,1.49107 1.688414,1.49106 2.609367,4.21007 0.920953,2.69707 0.920953,6.24932 0,3.55225 -0.920953,6.27125 -0.920953,2.69708 -2.609367,4.18815 -1.688414,1.49106 -3.881159,1.49106 z m 63.041383,3.13563 h -26.44451 v -2.32431 h 26.44451 z m 3.06982,0 h -2.63129 l 9.51651,-24.77802 h 2.6313 z m 26.31293,0 h -2.63129 l 9.51651,-24.77802 h 2.6313 z m 23.24308,0 h -13.28804 v -2.32431 h 13.28804 z m 3.06983,0 h -2.63129 l 9.51651,-24.77802 h 2.6313 z m 26.31293,0 h -2.63129 l 9.51651,-24.77802 h 2.63129 z m 26.31291,0 h -2.63129 l 9.51651,-24.77802 h 2.6313 z m 39.46938,0 h -2.6313 l 9.51652,-24.77802 h 2.63129 z m 26.31293,0 h -2.6313 l 9.51652,-24.77802 h 2.63129 z m 36.39955,0 h -26.44451 v -2.32431 h 26.44451 z m 3.06984,0 h -2.6313 l 9.51652,-24.77802 h 2.63129 z m 26.31289,0 h -2.63129 l 9.51651,-24.77802 h 2.6313 z m 26.31293,0 h -2.63129 l 9.51651,-24.77802 h 2.6313 z m 26.31293,0 h -2.6313 l 9.51652,-24.77802 h 2.63129 z"
     id="path4" />
  <path class="fill-foreground dark:fill-primary" 
     style="font-weight:bold;font-size:24.1202px;font-family:'VictorMono Nerd Font';-inkscape-font-specification:'VictorMono Nerd Font, Bold';stroke-width:0.738205;stroke-linecap:round;paint-order:markers stroke fill"
     d="M 3.13563,124.59179 H 0.50434 l 9.51651,-24.778021 h 2.63129 z m 23.24309,0 H 13.09068 v -2.32431 h 13.28804 z m 13.15646,0 H 26.24714 v -2.32431 h 13.28804 z m 13.156458,0 H 39.4036 v -2.32431 h 13.288038 z m 13.15646,0 H 52.560061 v -2.32431 h 13.288037 z m 14.559804,-24.778021 9.516515,24.778021 h -2.631294 l -8.35436,-21.75204 -8.35436,21.75204 H 67.953108 L 77.469623,99.813769 Z M 105.31747,124.59179 H 92.029436 v -2.32431 h 13.288034 z m 13.15647,0 H 105.1859 v -2.32431 h 13.28804 z m 13.15646,0 h -13.28804 v -2.32431 h 13.28804 z m 14.5598,-24.778021 9.51651,24.778021 h -2.63129 l -8.35436,-21.75204 -8.35436,21.75204 h -2.6313 l 9.51652,-24.778021 z m 38.06604,24.778021 h -26.44451 v -2.32431 h 26.44451 z m 3.99077,0.30698 q 1.1183,-1.53492 1.53492,-2.39009 0.43855,-0.85517 0.43855,-1.57878 -0.83324,0 -1.14022,-0.39469 -0.30699,-0.3947 -0.30699,-1.46914 0,-1.05252 0.41662,-1.44721 0.43855,-0.41662 1.57878,-0.41662 1.14023,0 1.55685,0.41662 0.43855,0.39469 0.43855,1.44721 0,1.62263 -0.57012,2.8725 -0.54818,1.27179 -2.01732,2.9602 z m 22.32214,-0.30698 h -13.28804 v -2.32431 h 13.28804 z m 3.06984,0 h -2.6313 l 9.51652,-24.778021 h 2.63129 z m 23.24309,0 h -13.28804 v -2.32431 h 13.28804 z m 3.06983,0 h -2.63129 l 9.51651,-24.778021 h 2.6313 z m 62.14234,0 h -2.63129 l -9.51652,-24.778021 h 2.6313 z m 13.72658,0 h -13.28804 v -2.32431 h 13.28804 z m 13.15646,0 h -13.28803 v -2.32431 h 13.28803 z m 13.15647,0 h -13.28804 v -2.32431 h 13.28804 z m 3.06983,0 h -2.63129 l 9.51651,-24.778021 h 2.6313 z m 23.24309,0 h -13.28803 v -2.32431 h 13.28803 z m 3.06981,0 h -2.6313 l 9.51652,-24.778021 h 2.63129 z m 26.31293,0 h -2.6313 l 9.51652,-24.778021 h 2.63129 z m 23.24309,0 h -13.28804 v -2.32431 h 13.28804 z m 3.06983,0 h -2.63129 l 9.51651,-24.778021 h 2.6313 z"
     id="path5" />
</svg>
